<?xml version="1.0" encoding="UTF-8"?>
<svg xmlns="http://www.w3.org/2000/svg" width="300px" height="97px" viewBox="0 0 222 72" fill="none">
  <g clip-path="url(#clip0_72_2146)">
    <path d="M65.95 15.9882C69.8946 21.8917 72 28.8323 72 35.9324C72 45.4533 68.2179 54.5843 61.4856 61.3165C54.7533 68.0488 45.6223 71.831 36.1014 71.831C29.0014 71.831 22.0607 69.7256 16.1572 65.781C10.2537 61.8364 5.65253 56.2298 2.93545 49.6702C0.218374 43.1106 -0.492538 35.8926 0.892618 28.9289C2.27777 21.9653 5.69678 15.5688 10.7173 10.5483C15.7378 5.52776 22.1343 2.10875 29.098 0.723597C36.0616 -0.661559 43.2796 0.04935 49.8392 2.76643C56.3988 5.48351 62.0054 10.0847 65.95 15.9882Z" fill="white" fill-opacity="0.96"></path>
    <path d="M74.8733 71.831H146.67V35.9324C146.672 26.5102 142.968 17.4653 136.36 10.7493C129.751 4.03328 120.767 0.184635 111.346 0.0338097H74.8733V71.831Z" fill="white" fill-opacity="0.96"></path>
    <path d="M185.408 71.7972V35.9324H221.273C221.273 28.839 219.17 21.9049 215.229 16.007C211.288 10.1091 205.687 5.51218 199.133 2.79765C192.58 0.0831337 185.369 -0.627111 178.412 0.75674C171.455 2.14059 165.064 5.55638 160.048 10.5722C155.032 15.5879 151.617 21.9784 150.233 28.9355C148.849 35.8926 149.559 43.1038 152.274 49.6573C154.988 56.2107 159.585 61.812 165.483 65.7529C171.381 69.6938 178.315 71.7972 185.408 71.7972Z" fill="white" fill-opacity="0.96"></path>
  </g>
  <defs>
    <clipPath id="clip0_72_2146">
      <rect width="221.408" height="72" fill="white"></rect>
    </clipPath>
  </defs>
</svg>
